<?xml version="1.0" standalone="no"?>
<!DOCTYPE svg PUBLIC "-//W3C//DTD SVG 20010904//EN"
 "http://www.w3.org/TR/2001/REC-SVG-20010904/DTD/svg10.dtd">
<svg version="1.0" xmlns="http://www.w3.org/2000/svg"
 width="180.000000pt" height="180.000000pt" viewBox="0 0 180.000000 180.000000"
 preserveAspectRatio="xMidYMid meet">
<metadata>
Created by potrace 1.11, written by Peter Selinger 2001-2013
</metadata>
<g transform="translate(0.000000,180.000000) scale(0.100000,-0.100000)"
fill="#000000" stroke="none">
<path d="M879 1213 c-1 -4 -1 -12 0 -16 1 -5 -3 -6 -9 -2 -14 9 -60 -21 -60
-39 0 -9 -7 -12 -19 -9 -30 8 -101 -66 -101 -106 0 -19 6 -34 15 -37 13 -5 13
-8 0 -20 -13 -14 -11 -43 4 -45 3 0 14 -2 25 -4 31 -6 46 6 46 36 0 28 -8 34
-40 29 -17 -2 -13 3 48 50 34 25 43 38 39 56 -3 18 2 23 25 28 18 3 28 12 28
23 1 17 1 17 11 1 5 -10 17 -18 26 -18 10 0 13 -6 9 -16 -3 -9 -6 -19 -6 -22
0 -4 -7 3 -15 15 -16 22 -50 21 -42 -1 2 -6 0 -19 -4 -28 -7 -13 -4 -20 12
-28 17 -9 25 -8 41 7 11 10 22 17 24 16 11 -8 23 -1 26 15 3 9 5 -5 5 -33 0
-27 -2 -43 -4 -34 -5 21 -43 32 -49 15 -3 -7 5 -32 17 -55 18 -35 26 -42 48
-39 20 2 26 9 26 28 0 19 6 25 25 27 17 1 19 0 6 -4 -15 -4 -18 -12 -14 -53 4
-38 1 -49 -14 -59 -26 -16 -22 -35 11 -64 17 -14 27 -27 24 -31 -3 -3 -19 7
-34 22 -32 30 -37 63 -14 82 24 20 2 37 -58 44 -47 7 -50 9 -33 21 23 18 14
50 -12 40 -24 -10 -43 -13 -75 -14 -22 -1 -28 -5 -25 -18 2 -13 13 -18 35 -17
17 0 30 -4 27 -8 -3 -4 -14 -8 -24 -8 -24 0 -29 -9 -31 -51 -2 -19 -12 -44
-23 -57 l-20 -23 22 -6 c29 -7 28 -23 -2 -23 -33 0 -42 -28 -13 -39 43 -17 54
1 51 82 -3 84 7 102 63 113 23 4 36 0 58 -18 25 -22 28 -30 29 -99 l1 -74 30
3 c17 2 39 5 50 7 11 2 23 4 26 4 6 1 17 58 19 96 3 49 -10 149 -19 155 -10 5
-9 9 3 13 12 5 13 12 5 35 -19 56 -195 191 -200 155z m108 -79 c-3 -3 -12 -4
-19 -1 -8 3 -5 6 6 6 11 1 17 -2 13 -5z m3 -134 c0 -5 -2 -10 -4 -10 -2 0 -12
-3 -22 -7 -16 -6 -17 -5 -4 10 17 19 30 22 30 7z"/>
<path d="M811 1049 c-21 -17 -22 -22 -10 -30 26 -17 54 -6 54 20 0 32 -14 35
-44 10z"/>
<path d="M690 874 l0 -65 28 3 c21 2 28 9 30 32 5 44 -5 72 -33 84 l-25 12 0
-66z"/>
<path d="M763 919 c-13 -13 -6 -46 11 -52 8 -3 13 7 14 29 3 35 -6 42 -25 23z"/>
<path d="M687 788 c-6 -18 11 -48 27 -48 18 0 27 35 13 49 -15 15 -34 14 -40
-1z"/>
<path d="M530 634 l0 -44 52 3 c40 1 52 6 54 19 4 28 -15 32 -25 6 -9 -21 -10
-20 -10 10 -1 29 2 32 19 27 14 -5 18 -2 15 7 -10 24 -43 19 -49 -8 -4 -14 -4
-29 -1 -33 2 -5 -6 -11 -20 -13 -20 -4 -23 -3 -14 8 9 11 8 18 -2 30 -12 15
-11 16 10 9 17 -5 22 -4 19 6 -3 8 -14 15 -26 15 -19 1 -22 -4 -22 -42z"/>
<path d="M654 635 c12 -50 30 -62 22 -15 -2 17 0 30 5 30 5 0 9 7 9 16 0 14
-3 14 -15 4 -10 -9 -15 -9 -15 -1 0 6 -4 11 -8 11 -5 0 -4 -20 2 -45z"/>
<path d="M700 633 c0 -24 5 -43 10 -43 6 0 10 5 10 10 0 6 9 19 20 30 24 24
17 46 -15 46 -23 0 -25 -4 -25 -43z m35 6 c-10 -15 -25 -10 -19 6 4 8 10 12
15 9 5 -3 7 -10 4 -15z"/>
<path d="M760 670 c0 -5 4 -10 8 -10 5 0 7 -16 6 -35 -2 -19 1 -35 6 -35 6 0
10 16 10 35 0 19 5 35 10 35 6 0 10 5 10 10 0 6 -11 10 -25 10 -14 0 -25 -4
-25 -10z"/>
<path d="M817 663 c-8 -34 -7 -73 3 -73 6 0 10 20 10 45 0 47 -5 58 -13 28z"/>
<path d="M857 674 c-3 -5 -8 -25 -12 -44 l-6 -36 40 -1 c36 -2 41 1 42 20 l0
22 9 -22 c15 -36 25 -27 25 22 0 25 -3 45 -7 45 -5 0 -8 -8 -8 -17 -1 -17 -1
-17 -14 -1 -14 19 -28 14 -20 -6 3 -7 0 -23 -5 -37 -9 -21 -10 -21 -11 -4 -1
26 -26 70 -33 59z"/>
<path d="M995 671 c-11 -10 -4 -39 10 -45 8 -3 15 -10 15 -15 0 -6 -7 -8 -15
-5 -8 4 -15 1 -15 -5 0 -11 42 -16 52 -5 10 10 -4 44 -18 44 -27 0 -14 17 14
18 26 0 28 -2 26 -34 -2 -19 1 -34 6 -34 6 0 10 16 10 35 0 19 5 35 10 35 6 0
10 -16 10 -35 0 -27 4 -35 18 -35 10 0 24 6 31 13 11 10 13 10 7 0 -4 -7 -3
-13 3 -13 5 0 12 6 14 13 4 8 8 9 14 2 11 -15 70 -18 79 -4 5 9 0 10 -14 7
-23 -7 -30 6 -9 16 10 5 10 7 0 12 -21 9 -15 26 7 19 14 -5 18 -2 15 7 -7 18
-64 16 -75 -2 -8 -13 -10 -12 -15 0 -4 12 -25 15 -90 15 -47 1 -88 -1 -90 -4z
m140 -43 c-7 -34 -15 -34 -15 1 0 18 4 30 9 26 6 -3 8 -15 6 -27z"/>
</g>
</svg>
